HIERARCHY
ROOT Hips
{
 OFFSET 0.000000 0.000000 0.000000
 CHANNELS 6 Xposition Yposition Zposition Yrotation Xrotation Zrotation
 JOINT Chest
 {
  OFFSET 0.000000 9.585900 0.002600
  CHANNELS 3 Yrotation Xrotation Zrotation
  JOINT Chest2
  {
   OFFSET 0.000000 9.601200 -0.005300
   CHANNELS 3 Yrotation Xrotation Zrotation
   JOINT Chest3
   {
    OFFSET 0.000000 9.561800 0.000000
    CHANNELS 3 Yrotation Xrotation Zrotation
    JOINT Chest4
    {
     OFFSET 0.000000 9.552100 0.000000
     CHANNELS 3 Yrotation Xrotation Zrotation
     JOINT Neck
     {
      OFFSET 0.000000 14.453000 0.000000
      CHANNELS 3 Yrotation Xrotation Zrotation
      JOINT Head
      {
       OFFSET 0.000000 8.936500 -0.011300
       CHANNELS 3 Yrotation Xrotation Zrotation
       End Site
       {
        OFFSET 0.000000 17.073600 -0.006000
       }
      }
     }
     JOINT RightCollar
     {
      OFFSET -2.921100 9.558500 0.000000
      CHANNELS 3 Yrotation Xrotation Zrotation
      JOINT RightShoulder
      {
       OFFSET -13.519700 0.000000 0.000000
       CHANNELS 3 Yrotation Xrotation Zrotation
       JOINT RightElbow
       {
        OFFSET 0.000000 -29.696600 0.000000
        CHANNELS 3 Yrotation Xrotation Zrotation
        JOINT RightWrist
        {
         OFFSET 0.000000 -24.004700 0.000000
         CHANNELS 3 Yrotation Xrotation Zrotation
         End Site
         {
          OFFSET 0.000000 -17.728500 0.000000
         }
        }
       }
      }
     }
     JOINT LeftCollar
     {
      OFFSET 2.921100 9.558500 0.000000
      CHANNELS 3 Yrotation Xrotation Zrotation
      JOINT LeftShoulder
      {
       OFFSET 13.519700 0.000000 0.000000
       CHANNELS 3 Yrotation Xrotation Zrotation
       JOINT LeftElbow
       {
        OFFSET 0.000000 -29.696600 0.000000
        CHANNELS 3 Yrotation Xrotation Zrotation
        JOINT LeftWrist
        {
         OFFSET 0.000000 -24.004700 0.000000
         CHANNELS 3 Yrotation Xrotation Zrotation
         End Site
         {
          OFFSET 0.000000 -17.728500 0.000000
         }
        }
       }
      }
     }
    }
   }
  }
 }
 JOINT RightHip
 {
  OFFSET -7.771700 -0.012900 -0.001300
  CHANNELS 3 Yrotation Xrotation Zrotation
  JOINT RightKnee
  {
   OFFSET 0.000000 -40.869800 0.001200
   CHANNELS 3 Yrotation Xrotation Zrotation
   JOINT RightAnkle
   {
    OFFSET 0.000000 -39.717900 0.002100
    CHANNELS 3 Yrotation Xrotation Zrotation
    JOINT RightToe
    {
     OFFSET 0.000000 -4.965400 11.033500
     CHANNELS 3 Yrotation Xrotation Zrotation
     End Site
     {
      OFFSET 0.000000 -1.423100 5.872300
     }
    }
   }
  }
 }
 JOINT LeftHip
 {
  OFFSET 7.771700 -0.012900 -0.001300
  CHANNELS 3 Yrotation Xrotation Zrotation
  JOINT LeftKnee
  {
   OFFSET 0.000000 -40.869800 0.001200
   CHANNELS 3 Yrotation Xrotation Zrotation
   JOINT LeftAnkle
   {
    OFFSET 0.000000 -39.717900 0.002100
    CHANNELS 3 Yrotation Xrotation Zrotation
    JOINT LeftToe
    {
     OFFSET 0.000000 -4.965400 11.033500
     CHANNELS 3 Yrotation Xrotation Zrotation
     End Site
     {
      OFFSET 0.000000 -1.423100 5.872300
     }
    }
   }
  }
 }
}
MOTION
Frames: 12
Frame Time: 0.008333
4.701462 53.026293 37.964902 170.456757 -39.367897 -1.928090 3.907135 22.223100 1.786051 0.480057 3.122971 0.333386 0.752080 5.038996 0.538066 3.118318 18.648855 2.413839 1.895140 15.513930 1.705694 2.837842 -7.038879 2.524270 -5.264255 -0.737831 -2.456939 -4.540741 -1.247219 6.448711 -167.434340 -78.610036 177.729616 13.858737 21.127081 29.205081 -3.937364 1.703269 0.179617 14.186026 -4.758570 1.626542 146.910074 -68.163814 -165.595134 -22.381388 21.909289 -51.320781 -1.295579 -42.362820 3.712989 126.950801 84.289708 131.198385 -3.912035 -10.546999 -1.863275 0.481954 -0.607754 0.207005 0.201834 -38.359159 6.395385 73.867817 84.168785 63.658800 -4.794863 -13.370228 10.073266 0.230929 1.445724 0.201656
4.686754 52.966925 37.962333 170.526517 -39.312315 -1.890134 3.833270 22.186657 1.707284 0.501159 3.130869 0.342975 0.762381 5.045789 0.539541 3.108154 18.643079 2.398956 1.880875 15.538885 1.699682 2.801869 -6.995665 2.505964 -5.253335 -0.761760 -2.439710 -4.724393 -1.278453 6.415033 -169.537388 -78.149767 179.704496 15.519096 21.471111 32.848524 -3.963186 1.698254 0.188610 14.548621 -4.934725 1.653524 146.348201 -67.784502 -165.654703 -24.228698 22.335781 -55.418434 -1.456173 -42.411148 3.676202 127.399129 84.291446 131.545028 -3.874906 -10.602705 -1.903482 0.506145 -0.576512 0.221542 0.222222 -38.419818 6.322462 73.864382 84.191720 63.618957 -4.893806 -13.456686 10.100002 0.286822 1.548445 0.226035
4.679940 52.918912 37.960692 170.558441 -39.285115 -1.872863 3.830169 22.181014 1.697468 0.504231 3.128720 0.344377 0.763815 5.048577 0.539716 3.110347 18.646538 2.393495 1.860083 15.565575 1.685843 2.763425 -6.946764 2.479087 -5.246708 -0.794015 -2.428737 -4.926491 -1.309903 6.375521 -171.032425 -77.681648 -178.909896 17.110177 21.619861 36.486376 -3.985693 1.697029 0.189676 14.834886 -5.125489 1.683405 145.664663 -67.425501 -165.595393 -25.915989 22.632982 -59.234623 -1.619823 -42.424603 3.715531 127.611054 84.291918 131.648354 -3.862874 -10.648070 -1.911979 0.476406 -0.555723 0.220522 0.241814 -38.449229 6.306862 73.827271 84.203590 63.545761 -4.950808 -13.494844 10.137501 0.295164 1.598144 0.228782
4.668496 52.875414 37.964299 170.635340 -39.232561 -1.855295 3.822022 22.159288 1.694009 0.465875 3.117480 0.325092 0.765072 5.052461 0.540447 3.116600 18.651942 2.392382 1.833730 15.593413 1.666245 2.725467 -6.895143 2.443939 -5.245298 -0.830515 -2.422181 -5.138252 -1.347850 6.328632 -171.884526 -77.211191 -178.143339 18.594483 21.603954 40.054471 -3.981434 1.693514 0.186392 15.025314 -5.314794 1.722080 144.926472 -67.086833 -165.464285 -27.394550 22.814207 -62.722837 -1.768184 -42.458255 3.708252 127.785731 84.299811 131.728523 -3.898771 -10.706722 -1.910769 0.522432 -0.518327 0.220153 0.246755 -38.500846 6.241566 73.792048 84.191774 63.482763 -5.024627 -13.554837 10.133183 0.326926 1.674683 0.254980
4.659235 52.841755 37.966407 170.706091 -39.215647 -1.836962 3.780023 22.157883 1.663368 0.466887 3.120721 0.325791 0.745069 5.048316 0.529086 3.196541 18.691803 2.429893 1.759011 15.594645 1.631005 2.686282 -6.844779 2.401047 -5.315639 -0.890636 -2.429405 -5.328928 -1.403657 6.276566 -172.101720 -76.744264 -177.982384 19.940882 21.477722 43.502531 -4.057242 1.640794 0.176936 15.191619 -5.477265 1.774818 144.109395 -66.763264 -165.235302 -28.638701 22.895230 -65.844518 -1.870503 -42.456229 3.672275 128.030408 84.317747 131.917313 -3.897951 -10.751022 -1.933641 0.556810 -0.498766 0.232723 0.246405 -38.515107 6.170217 73.763463 84.153595 63.425648 -5.058095 -13.561661 10.155802 0.337412 1.695384 0.227065
4.655018 52.814846 37.969731 170.769572 -39.216166 -1.836725 3.754354 22.171230 1.659783 0.448557 3.117665 0.313706 0.744675 5.051693 0.529558 3.228796 18.707855 2.448005 1.731268 15.619697 1.598556 2.646477 -6.797883 2.350925 -5.310639 -0.930396 -2.434261 -5.548998 -1.463750 6.210650 -171.795221 -76.281459 -178.318190 21.111107 21.299254 46.798441 -4.095918 1.610619 0.169435 15.322855 -5.632021 1.846488 143.104893 -66.440296 -164.820260 -29.648481 22.902915 -68.570565 -1.939610 -42.438854 3.638085 128.131163 84.325314 132.008472 -3.926762 -10.774883 -1.972375 0.610838 -0.497402 0.251866 0.256626 -38.508589 6.135944 73.639736 84.133191 63.286384 -5.111486 -13.565868 10.146933 0.339828 1.717750 0.259087
4.650188 52.790170 37.977006 170.804578 -39.204156 -1.811493 3.727152 22.167559 1.627922 0.450305 3.118548 0.314165 0.768860 5.063082 0.543176 3.227073 18.717413 2.454954 1.705190 15.643248 1.562185 2.611126 -6.753871 2.292846 -5.303800 -0.964974 -2.444627 -5.764951 -1.539442 6.135766 -171.067557 -75.824507 -179.049510 22.086697 21.110551 49.919108 -4.137175 1.580381 0.160100 15.431002 -5.779326 1.936080 141.789998 -66.094933 -164.119199 -30.446643 22.876987 -70.883032 -1.941198 -42.444407 3.581439 128.079025 84.325736 131.948721 -3.941502 -10.774844 -1.974084 0.624760 -0.501428 0.252251 0.298922 -38.514514 6.079358 73.497606 84.100240 63.136352 -5.154868 -13.559022 10.154754 0.345433 1.727976 0.258715
4.647705 52.771414 37.982747 170.842976 -39.222524 -1.795317 3.700907 22.194800 1.605344 0.468752 3.127755 0.327988 0.769640 5.068336 0.545008 3.223374 18.722673 2.459136 1.682432 15.666326 1.522545 2.583247 -6.710642 2.227401 -5.296422 -0.994465 -2.459591 -5.971987 -1.629071 6.050833 -169.933808 -75.376251 179.842947 22.892306 20.944328 52.853389 -4.176331 1.552553 0.148693 15.514131 -5.915370 2.038950 140.109448 -65.706824 -163.087495 -31.056723 22.860615 -72.773686 -1.939221 -42.420206 3.520932 127.900143 84.309444 131.783303 -3.979865 -10.756985 -1.996870 0.649712 -0.533560 0.267345 0.336597 -38.489800 6.028671 73.298632 84.092595 62.942289 -5.181918 -13.551093 10.142407 0.371398 1.731545 0.272266
4.649533 52.754252 37.991370 170.859696 -39.238697 -1.790168 3.738953 22.224001 1.654366 0.451421 3.127825 0.311678 0.769603 5.073613 0.546411 3.211002 18.727389 2.461096 1.655791 15.667134 1.492831 2.573957 -6.646362 2.142692 -5.282688 -1.022379 -2.476305 -6.170777 -1.725032 5.952266 -168.392097 -74.934779 178.360507 23.565631 20.820700 55.607064 -4.207084 1.528338 0.134260 15.569921 -6.039294 2.152518 138.079825 -65.268506 -161.740953 -31.467337 22.874776 -74.251990 -1.912539 -42.405263 3.466796 127.414075 84.264231 131.350558 -4.055327 -10.712218 -2.031296 0.704032 -0.589929 0.288555 0.400040 -38.470686 6.013197 73.029051 84.106877 62.695279 -5.238837 -13.534689 10.133915 0.415623 1.729760 0.294027
4.643147 52.734581 38.004243 170.858347 -39.222305 -1.727670 3.739666 22.215861 1.623115 0.466261 3.136903 0.326256 0.772265 5.086396 0.552686 3.176449 18.724825 2.439930 1.636763 15.666872 1.464011 2.571513 -6.589638 2.053048 -5.262920 -1.052360 -2.488792 -6.359113 -1.824336 5.834630 -166.484910 -74.494700 176.546737 24.127705 20.740039 58.188652 -4.226438 1.506766 0.119203 15.606347 -6.153882 2.274635 135.752485 -64.778024 -160.125178 -31.656751 22.916373 -75.346084 -1.726957 -42.451060 3.282939 127.177972 84.227469 131.226677 -4.084785 -10.639384 -2.043210 0.717602 -0.659747 0.295785 0.465520 -38.482415 5.941244 72.893643 84.068064 62.546488 -5.280581 -13.498729 10.138651 0.456953 1.709234 0.279765
4.638696 52.716731 38.017232 170.864901 -39.215262 -1.682143 3.721840 22.213458 1.581702 0.463831 3.137376 0.322573 0.777806 5.094623 0.561072 3.179834 18.739215 2.446092 1.631372 15.684648 1.422885 2.558405 -6.596146 2.028915 -5.237165 -1.086252 -2.495756 -6.533787 -1.925955 5.698686 -164.291432 -74.050494 174.473056 24.593838 20.685948 60.600814 -4.241295 1.483189 0.106225 15.633229 -6.258227 2.402381 133.200675 -64.231326 -158.300148 -31.632270 22.979373 -76.100729 -1.614410 -42.473953 3.159405 126.951580 84.204120 131.065113 -4.113256 -10.588920 -2.044480 0.730450 -0.705236 0.297756 0.515212 -38.486287 5.886365 72.724976 84.041859 62.362335 -5.308482 -13.458841 10.159717 0.451672 1.694157 0.276614
4.631192 52.698623 38.031317 170.893614 -39.200022 -1.635805 3.677185 22.203927 1.520547 0.468700 3.143040 0.330831 0.779338 5.102760 0.563151 3.180154 18.750591 2.447209 1.619803 15.697992 1.380149 2.552203 -6.602553 2.005071 -5.220820 -1.120237 -2.502683 -6.678153 -2.029791 5.551130 -161.873155 -73.594067 172.198537 24.981109 20.629715 62.848802 -4.255346 1.458970 0.094450 15.652938 -6.353573 2.532132 130.489553 -63.623484 -156.322038 -31.416850 23.052330 -76.572133 -1.527596 -42.502498 3.031081 126.786245 84.184668 130.944927 -4.139684 -10.548549 -2.042646 0.750004 -0.741726 0.300321 0.596436 -38.494756 5.823924 72.374763 84.030622 61.989859 -5.373825 -13.405286 10.201399 0.467187 1.673816 0.278940
